<svg id="Ebene_1" data-name="Ebene 1" xmlns="http://www.w3.org/2000/svg" viewBox="0 0 250 250"><defs><style>.cls-1,.cls-2,.cls-3{fill:#fff;stroke:#fff;stroke-miterlimit:10;}.cls-2{font-size:104.7px;font-family:Raleway-Light, Raleway;font-weight:300;letter-spacing:-0.04em;}.cls-3{font-size:35.9px;font-family:CaviarDreams, Caviar Dreams;}.cls-4{letter-spacing:0.46em;}.cls-5{letter-spacing:1.15em;}.cls-6,.cls-7,.cls-8,.cls-9{font-family:Raleway-ExtraLight, Raleway;font-weight:200;}.cls-6{letter-spacing:0.03em;}.cls-11,.cls-7{letter-spacing:0.01em;}.cls-10,.cls-8{font-size:32.91px;}.cls-8{letter-spacing:0.01em;}.cls-9{letter-spacing:1.24em;}.cls-10{letter-spacing:0.01em;}.cls-12{letter-spacing:0.01em;}.cls-13{letter-spacing:0em;}.cls-14{letter-spacing:0.01em;}.cls-15{letter-spacing:0em;}.cls-16{letter-spacing:-0.02em;}</style></defs><rect class="cls-1" x="27.24" y="173.09" width="16.45" height="27.35" transform="translate(70.93 373.52) rotate(180)"/><rect class="cls-1" x="80.54" y="173.09" width="11.97" height="27.35" transform="translate(173.04 373.52) rotate(180)"/><rect class="cls-1" x="96.99" y="173.09" width="8.97" height="27.35" transform="translate(202.95 373.52) rotate(180)"/><rect class="cls-1" x="161.3" y="173.09" width="7.48" height="27.35" transform="translate(330.08 373.52) rotate(180)"/><rect class="cls-1" x="194.21" y="173.09" width="5.98" height="27.35" transform="translate(394.4 373.52) rotate(180)"/><rect class="cls-1" x="219.63" y="173.09" width="2.99" height="27.35" transform="translate(442.26 373.52) rotate(180)"/><rect class="cls-1" x="227.11" y="173.09" width="1.5" height="27.35" transform="translate(455.72 373.52) rotate(180)"/><rect class="cls-1" x="233.1" y="173.09" width="1.5" height="27.35" transform="translate(467.69 373.52) rotate(180)"/><rect class="cls-1" x="239.08" y="173.09" width="1.5" height="27.35" transform="translate(479.65 373.52) rotate(180)"/><rect class="cls-1" x="244.52" y="173.09" width="1.5" height="27.35" transform="translate(490.53 373.52) rotate(180)"/><rect class="cls-1" x="6.84" y="173.09" width="16.45" height="27.35" transform="translate(30.14 373.52) rotate(180)"/><rect class="cls-1" x="47.63" y="173.09" width="11.97" height="27.35" transform="translate(107.23 373.52) rotate(180)"/><rect class="cls-1" x="110.45" y="173.09" width="8.97" height="27.35" transform="translate(229.87 373.52) rotate(180)"/><rect class="cls-1" x="137.37" y="173.09" width="7.48" height="27.35" transform="translate(282.22 373.52) rotate(180)"/><rect class="cls-1" x="183.74" y="173.09" width="5.98" height="27.35" transform="translate(373.46 373.52) rotate(180)"/><rect class="cls-1" x="212.16" y="173.09" width="2.99" height="27.35" transform="translate(427.3 373.52) rotate(180)"/><rect class="cls-1" x="64.08" y="173.09" width="11.97" height="27.35" transform="translate(140.13 373.52) rotate(180)"/><rect class="cls-1" x="123.91" y="173.09" width="8.97" height="27.35" transform="translate(256.8 373.52) rotate(180)"/><rect class="cls-1" x="149.34" y="173.09" width="7.48" height="27.35" transform="translate(306.15 373.52) rotate(180)"/><rect class="cls-1" x="173.27" y="173.09" width="5.98" height="27.35" transform="translate(352.52 373.52) rotate(180)"/><rect class="cls-1" x="204.68" y="173.09" width="2.99" height="27.35" transform="translate(412.35 373.52) rotate(180)"/><text class="cls-2" transform="translate(-3.07 124.43)">MR</text><text class="cls-3" transform="translate(-158.02 124.17)"><tspan xml:space="preserve">  </tspan><tspan class="cls-4" x="24.82" y="0">	</tspan><tspan class="cls-5" x="53.84" y="0" xml:space="preserve">				</tspan><tspan x="269.22" y="0" xml:space="preserve">   </tspan><tspan class="cls-6" x="306.45" y="0">Video</tspan><tspan class="cls-7" x="406.85" y="0"> </tspan><tspan class="cls-8" x="416.58" y="0"> </tspan><tspan class="cls-9"><tspan x="0" y="37.39" xml:space="preserve">			</tspan><tspan class="cls-10" x="161.53" y="37.39">&amp; </tspan><tspan class="cls-11" x="192.04" y="37.39">Ph</tspan><tspan class="cls-12" x="235.61" y="37.39">o</tspan><tspan class="cls-13" x="256.94" y="37.39">t</tspan><tspan class="cls-11" x="267.92" y="37.39">og</tspan><tspan class="cls-14" x="311.71" y="37.39">r</tspan><tspan class="cls-11" x="323.78" y="37.39">ap</tspan><tspan class="cls-15" x="365.45" y="37.39">h</tspan><tspan class="cls-16" x="385.84" y="37.39">y</tspan></tspan></text><text/><text/><text/><text/></svg>