<svg xmlns="http://www.w3.org/2000/svg" viewBox="0 0 480 480"><defs><style>.cls-1{stroke:#000;stroke-miterlimit:10;}.cls-2{font-size:192.26px;font-family:Raleway-Light, Raleway;font-weight:300;letter-spacing:-0.04em;}.cls-3{font-size:65.92px;font-family:CaviarDreams, Caviar Dreams;}.cls-4{letter-spacing:0.46em;}.cls-5{letter-spacing:1.15em;}.cls-6,.cls-7,.cls-8,.cls-9{font-family:Raleway-ExtraLight, Raleway;font-weight:200;}.cls-6{letter-spacing:0.03em;}.cls-11,.cls-7{letter-spacing:0.01em;}.cls-10,.cls-8{font-size:60.42px;}.cls-8{letter-spacing:0.01em;}.cls-9{letter-spacing:1.24em;}.cls-10{letter-spacing:0.01em;}.cls-12{letter-spacing:0.01em;}.cls-13{letter-spacing:0em;}.cls-14{letter-spacing:0.01em;}.cls-15{letter-spacing:0em;}.cls-16{letter-spacing:-0.01em;}.cls-17{fill:none;}</style></defs><g id="Ebene_2" data-name="Ebene 2"><rect class="cls-1" x="60.84" y="322.73" width="30.21" height="50.22" transform="translate(151.9 695.67) rotate(180)"/><rect class="cls-1" x="158.72" y="322.73" width="21.97" height="50.22" transform="translate(339.42 695.67) rotate(180)"/><rect class="cls-1" x="188.93" y="322.73" width="16.48" height="50.22" transform="translate(394.35 695.67) rotate(180)"/><rect class="cls-1" x="307.04" y="322.73" width="13.73" height="50.22" transform="translate(627.81 695.67) rotate(180)"/><rect class="cls-1" x="367.46" y="322.73" width="10.99" height="50.22" transform="translate(745.91 695.67) rotate(180)"/><rect class="cls-1" x="414.15" y="322.73" width="5.49" height="50.22" transform="translate(833.8 695.67) rotate(180)"/><rect class="cls-1" x="427.89" y="322.73" width="2.75" height="50.22" transform="translate(858.52 695.67) rotate(180)"/><rect class="cls-1" x="438.87" y="322.73" width="2.75" height="50.22" transform="translate(880.49 695.67) rotate(180)"/><rect class="cls-1" x="449.86" y="322.73" width="2.75" height="50.22" transform="translate(902.46 695.67) rotate(180)"/><rect class="cls-1" x="459.85" y="322.73" width="2.75" height="50.22" transform="translate(922.44 695.67) rotate(180)"/><rect class="cls-1" x="23.39" y="322.73" width="30.21" height="50.22" transform="translate(77 695.67) rotate(180)"/><rect class="cls-1" x="98.3" y="322.73" width="21.97" height="50.22" transform="translate(218.57 695.67) rotate(180)"/><rect class="cls-1" x="213.65" y="322.73" width="16.48" height="50.22" transform="translate(443.79 695.67) rotate(180)"/><rect class="cls-1" x="263.09" y="322.73" width="13.73" height="50.22" transform="translate(539.92 695.67) rotate(180)"/><rect class="cls-1" x="348.24" y="322.73" width="10.99" height="50.22" transform="translate(707.46 695.67) rotate(180)"/><rect class="cls-1" x="400.42" y="322.73" width="5.49" height="50.22" transform="translate(806.33 695.67) rotate(180)"/><rect class="cls-1" x="128.51" y="322.73" width="21.97" height="50.22" transform="translate(278.99 695.67) rotate(180)"/><rect class="cls-1" x="238.37" y="322.73" width="16.48" height="50.22" transform="translate(493.22 695.67) rotate(180)"/><rect class="cls-1" x="285.06" y="322.73" width="13.73" height="50.22" transform="translate(583.86 695.67) rotate(180)"/><rect class="cls-1" x="329.01" y="322.73" width="10.99" height="50.22" transform="translate(669 695.67) rotate(180)"/><rect class="cls-1" x="386.69" y="322.73" width="5.49" height="50.22" transform="translate(778.87 695.67) rotate(180)"/></g><g id="Ebene_1" data-name="Ebene 1"><text class="cls-2" transform="translate(5.19 233.38)">MR</text><text class="cls-3" transform="translate(-279.36 232.91)"><tspan xml:space="preserve">  </tspan><tspan class="cls-4" x="45.58" y="0">	</tspan><tspan class="cls-5" x="98.88" y="0" xml:space="preserve">				</tspan><tspan x="494.38" y="0" xml:space="preserve">   </tspan><tspan class="cls-6" x="562.75" y="0">Video</tspan><tspan class="cls-7" x="747.12" y="0"> </tspan><tspan class="cls-8" x="764.98" y="0"> </tspan><tspan class="cls-9"><tspan x="0" y="68.66" xml:space="preserve">			</tspan><tspan class="cls-10" x="296.63" y="68.66">&amp; </tspan><tspan class="cls-11" x="352.64" y="68.66">Ph</tspan><tspan class="cls-12" x="432.67" y="68.66">o</tspan><tspan class="cls-13" x="471.82" y="68.66">t</tspan><tspan class="cls-11" x="491.99" y="68.66">og</tspan><tspan class="cls-14" x="572.41" y="68.66">r</tspan><tspan class="cls-11" x="594.56" y="68.66">ap</tspan><tspan class="cls-15" x="671.09" y="68.66">h</tspan><tspan class="cls-16" x="708.53" y="68.66">y</tspan></tspan></text><text/><text/><text/><rect id="_Slice_" data-name="&lt;Slice&gt;" class="cls-17" width="479" height="480"/></g></svg>